<?xml version="1.0" encoding="UTF-8"?>
<svg width="114px" height="25px" viewBox="0 0 114 25" version="1.1" xmlns="http://www.w3.org/2000/svg" xmlns:xlink="http://www.w3.org/1999/xlink">
    <g fill="#ffffff">
        <polyline points="11.9248442 14.5059214 11.9248442 24.1968116 8.75283117 24.1968116 8.75283117 14.5682327 0.294623377 1.32485685 3.99592208 1.32485685 10.3392078 11.3584591 16.6514026 1.32485685 20.3830519 1.32485685 11.9248442 14.5059214"></polyline>
        <path d="M30.5179481,10.4549453 L30.6423117,8.55370901 L33.4101429,8.55370901 L33.4101429,24.1968116 L30.6423117,24.1968116 L30.5179481,22.296317 C29.6163117,23.4802317 27.9677532,24.508368 25.5115714,24.508368 C21.2202857,24.508368 18.297,21.0805049 18.297,16.3752603 C18.297,11.6700156 21.2202857,8.24215252 25.5115714,8.24215252 C27.9677532,8.24215252 29.6163117,9.27028891 30.5179481,10.4549453 L30.5179481,10.4549453 Z M21.375,16.3752603 C21.375,19.6161895 23.3344675,21.7978267 26.0712078,21.7978267 C28.1542987,21.7978267 29.4297662,20.6754815 30.3624935,19.1488548 L30.3624935,13.6016658 C29.4297662,12.075039 28.1542987,10.9534357 26.0712078,10.9534357 C23.3344675,10.9534357 21.375,13.1343311 21.375,16.3752603 L21.375,16.3752603 Z"></path>
        <polygon  points="38.1944416 0.514068194 41.2420909 0.514068194 41.2420909 24.1968116 38.1944416 24.1968116"></polygon>
        <path d="M56.8193766,10.4549453 L56.9437403,8.55370901 L59.7115714,8.55370901 L59.7115714,24.1968116 L56.9437403,24.1968116 L56.8193766,22.296317 C55.9177403,23.4802317 54.2699221,24.508368 51.813,24.508368 C47.5217143,24.508368 44.5991688,21.0805049 44.5991688,16.3752603 C44.5991688,11.6700156 47.5217143,8.24215252 51.813,8.24215252 C54.2699221,8.24215252 55.9177403,9.27028891 56.8193766,10.4549453 L56.8193766,10.4549453 Z M47.6771688,16.3752603 C47.6771688,19.6161895 49.6366364,21.7978267 52.3733766,21.7978267 C54.4564675,21.7978267 55.7311948,20.6754815 56.6646623,19.1488548 L56.6646623,13.6016658 C55.7311948,12.075039 54.4564675,10.9534357 52.3733766,10.9534357 C49.6366364,10.9534357 47.6771688,13.1343311 47.6771688,16.3752603 L47.6771688,16.3752603 Z"></path>
        <path d="M78.2417532,14.9421005 L78.2417532,24.1968116 L75.1941039,24.1968116 L75.1941039,15.1290344 C75.1941039,12.7612051 73.795013,11.1403696 71.5868182,11.1403696 C69.7524545,11.1403696 68.5088182,12.2619729 67.5442597,13.6328214 L67.5442597,24.1968116 L64.4966104,24.1968116 L64.4966104,8.55370901 L67.2644416,8.55370901 L67.3888052,10.4549453 C68.2904416,9.30144456 69.939,8.24215252 72.333,8.24215252 C76.0964805,8.24215252 78.2417532,10.9222801 78.2417532,14.9421005"></path>
        <path d="M86.6962597,8.55370901 L91.6101039,8.55370901 L91.6101039,11.1715252 L86.6962597,11.1715252 L86.6962597,18.9307652 C86.6962597,20.7385346 87.7851818,21.7355154 89.3708182,21.7355154 C90.4279091,21.7355154 91.143,21.516684 91.6101039,21.2362832 L92.4806494,23.6360099 C91.7344675,24.1033446 90.6455455,24.508368 89.1220909,24.508368 C85.7946234,24.508368 83.6493506,22.5767179 83.6493506,18.9619209 L83.6493506,11.1715252 L80.6017013,11.1715252 L80.6017013,8.55370901 L83.6493506,8.55370901 L83.6493506,3.25650703 L86.6962597,3.25650703 L86.6962597,8.55370901"></path>
        <path fill="#F16522" d="M96.5520779,5.49971369 C97.6706104,5.49971369 98.5418961,4.65851119 98.5418961,3.50575221 C98.5418961,2.38414888 97.6706104,1.51179073 96.5520779,1.51179073 C95.400974,1.51179073 94.5615195,2.38414888 94.5615195,3.50575221 C94.5615195,4.65851119 95.400974,5.49971369 96.5520779,5.49971369"></path>
        <polygon points="94.9967922 8.55370901 98.0437013 8.55370901 98.0437013 24.1968116 94.9967922 24.1968116"></polygon>
        <path d="M113.093182,9.95645497 L111.787364,12.3242842 C110.823545,11.5765487 109.579169,10.9534357 107.90026,10.9534357 C106.159169,10.9534357 105.039896,11.4830817 105.039896,12.7612051 C105.039896,14.0385867 105.940792,14.3501432 108.305182,14.9109448 C111.942818,15.783303 113.590636,17.2787741 113.590636,19.6473451 C113.590636,22.6078735 111.165545,24.508368 107.340623,24.508368 C104.977714,24.508368 102.80061,23.7606325 101.400779,22.6078735 L102.80061,20.1769912 C103.950974,21.1739719 105.505519,21.7978267 107.371714,21.7978267 C109.237169,21.7978267 110.512636,21.1739719 110.512636,19.834279 C110.512636,18.5568974 109.579169,18.0895627 107.185169,17.5280193 C103.546792,16.6868168 101.992247,15.4094352 101.992247,12.948139 C101.992247,9.98761062 104.262623,8.24215252 107.90026,8.24215252 C109.983351,8.24215252 111.880636,8.95947423 113.093182,9.95645497"></path>
    </g>
</svg>